<?xml version="1.0" standalone="no"?>
<!DOCTYPE svg PUBLIC "-//W3C//DTD SVG 20010904//EN"
 "http://www.w3.org/TR/2001/REC-SVG-20010904/DTD/svg10.dtd">
<svg version="1.0" xmlns="http://www.w3.org/2000/svg"
 width="783.000000pt" height="295.000000pt" viewBox="0 0 783.000000 295.000000"
 preserveAspectRatio="xMidYMid meet">

<g transform="translate(0.000000,295.000000) scale(0.100000,-0.100000)"
fill="#000000" stroke="none">
<path d="M3358 2603 c-9 -10 -18 -27 -20 -38 -4 -23 -59 -35 -261 -56 l-119
-13 7 -30 c28 -137 37 -245 41 -456 2 -129 9 -259 15 -288 6 -32 7 -58 2 -65
-10 -13 7 -180 20 -193 15 -16 128 -16 228 0 57 9 221 41 364 71 143 29 337
68 430 85 94 17 232 46 307 65 149 37 398 133 479 186 51 32 51 33 46 76 -8
69 -46 133 -97 161 -39 22 -51 24 -116 19 -39 -4 -84 -11 -100 -17 -33 -13
-280 -5 -298 9 -6 5 -36 8 -66 8 -45 -1 -60 3 -78 21 -23 23 -49 25 -45 4 3
-14 -58 4 -69 20 -5 9 -8 4 -8 -13 0 -14 -9 -34 -20 -44 -20 -18 -20 -17 -20
23 0 30 4 42 18 45 9 3 1 5 -18 6 -40 1 -54 9 -63 34 -3 9 -12 17 -19 16 -10
0 -10 -2 0 -6 6 -2 12 -8 12 -12 0 -12 -48 -61 -60 -61 -17 0 -11 39 9 59 18
18 18 19 -4 29 -13 6 -31 22 -42 35 l-18 25 -39 -31 -39 -31 7 29 c4 17 17 40
29 53 15 16 17 21 5 17 -10 -4 -23 3 -36 20 l-21 26 -40 -20 c-36 -19 -41 -19
-49 -5 -6 11 -11 13 -16 5 -12 -19 5 -33 33 -26 24 6 25 5 10 -10 -31 -31 -85
8 -58 42 7 7 17 12 23 10 6 -3 21 4 33 15 17 16 25 18 45 9 20 -10 21 -10 4 1
-52 35 -97 81 -84 89 17 11 -21 52 -43 46 -9 -3 -30 4 -46 14 -15 10 -37 19
-49 19 -11 0 -29 9 -39 20 -22 25 -47 26 -67 3z m145 -228 c117 -172 337 -324
517 -355 41 -7 163 -10 328 -8 144 2 262 0 262 -4 0 -5 -125 -8 -278 -8 -320
0 -378 9 -510 81 -102 54 -229 155 -279 220 -67 89 -173 239 -173 246 0 9 84
-100 133 -172z m86 151 c9 -10 6 -17 -11 -28 -40 -25 -57 -28 -66 -11 -6 11
-11 12 -16 4 -12 -19 5 -33 32 -26 22 5 24 4 13 -9 -17 -21 -27 -20 -51 4 -23
23 -16 54 11 47 10 -3 25 4 35 14 20 22 37 24 53 5z m-224 -219 c51 -29 85
-88 85 -147 0 -54 -24 -97 -76 -136 -31 -24 -46 -29 -99 -29 -52 0 -68 5 -103
28 -108 75 -90 238 33 293 46 21 114 17 160 -9z m345 -37 c0 -5 -5 -10 -12
-10 -8 0 -6 -6 5 -17 16 -16 18 -16 32 2 14 20 14 20 15 -2 0 -19 -5 -23 -30
-23 -32 0 -47 18 -36 45 6 17 26 21 26 5z m117 -94 c-9 -24 20 -41 40 -25 14
12 16 12 11 -1 -6 -20 -52 -25 -67 -7 -12 16 -5 47 11 47 6 0 8 -6 5 -14z
m319 -55 c4 -14 11 -31 16 -38 15 -18 0 -33 -32 -33 -27 0 -48 24 -31 35 5 3
11 -2 15 -10 7 -19 36 -20 36 0 0 8 -6 12 -14 9 -13 -5 -26 22 -26 58 0 27 29
10 36 -21z m-179 -2 c-7 -25 17 -37 38 -19 12 10 15 10 15 -3 0 -22 -17 -30
-44 -23 -28 7 -41 33 -25 52 16 20 22 17 16 -7z m317 -15 c18 -48 -5 -60 -29
-14 -15 28 -14 30 4 30 10 0 22 -7 25 -16z m496 1 c10 -12 0 -20 -63 -51 l-76
-38 -40 19 c-42 18 -68 41 -59 51 10 9 133 32 179 33 30 1 51 -4 59 -14z
m-340 -25 c0 -11 -6 -20 -13 -20 -7 0 -18 9 -25 20 -11 18 -10 20 13 20 18 0
25 -5 25 -20z m393 -8 c24 -26 57 -103 57 -134 0 -32 -28 -52 -150 -110 -71
-34 -280 -112 -285 -106 -12 15 -72 184 -67 189 4 3 62 26 129 49 68 24 160
63 205 85 101 51 92 49 111 27z m-555 -22 c6 0 16 8 21 18 9 15 10 15 11 -5 0
-13 -8 -24 -20 -28 -24 -8 -50 10 -50 34 1 14 2 14 14 -1 7 -10 18 -18 24 -18z
m142 -10 c5 0 16 8 25 17 16 16 17 15 13 -3 -5 -28 -62 -27 -66 1 -2 18 -2 18
8 3 6 -10 15 -18 20 -18z m-33 -187 c13 -31 22 -57 20 -58 -19 -12 -364 -94
-527 -125 -118 -22 -330 -63 -470 -90 -141 -28 -272 -50 -292 -50 -38 0 -48
14 -48 68 0 15 -7 26 -20 29 -40 11 -18 21 68 33 307 42 772 126 971 176 123
31 233 59 245 64 11 5 23 9 26 9 3 1 15 -25 27 -56z m-518 33 c22 -26 -10 -63
-44 -50 -15 6 -21 45 -8 57 11 12 40 8 52 -7z m-184 -36 c13 -20 -6 -50 -31
-50 -26 0 -40 20 -30 45 6 17 51 20 61 5z m745 -133 c-10 -12 -83 -28 -607
-133 -466 -93 -639 -124 -699 -124 -25 0 -33 5 -36 24 -4 22 -1 24 51 29 128
14 1028 193 1176 235 l100 28 11 -26 c6 -14 8 -29 4 -33z m-1368 -148 c4 -24
10 -59 13 -76 5 -26 3 -32 -9 -27 -18 7 -23 21 -32 98 -5 47 -4 58 7 54 8 -3
17 -24 21 -49z"/>
<path d="M3825 1871 c-3 -5 -1 -12 5 -16 12 -7 30 2 30 16 0 12 -27 12 -35 0z"/>
<path d="M3642 1836 c1 -10 8 -17 13 -17 15 1 12 24 -3 29 -9 3 -13 -2 -10
-12z"/>
<path d="M3494 1143 c-4 -16 -44 -165 -89 -333 -46 -168 -81 -308 -78 -312 2
-5 67 -8 143 -8 123 0 140 2 148 18 5 9 22 68 37 130 27 107 30 112 55 112 15
0 36 -10 49 -24 l22 -23 -26 -93 c-14 -51 -24 -99 -21 -106 7 -19 269 -20 283
-2 11 14 73 236 73 260 0 9 -10 27 -21 42 -21 27 -21 28 -3 41 56 39 63 51 94
170 17 66 34 128 36 138 5 16 -6 17 -143 17 l-149 0 -24 -95 c-28 -111 -24
-103 -71 -138 -33 -25 -79 -37 -79 -19 0 4 14 54 30 112 17 58 30 113 30 123
0 15 -14 17 -145 17 l-145 0 -6 -27z m266 -10 c0 -5 -14 -57 -31 -117 -16 -60
-28 -115 -25 -122 11 -28 72 -16 124 25 47 37 50 43 72 130 l24 91 121 0 122
0 -30 -112 c-28 -107 -32 -115 -75 -154 l-46 -41 22 -30 c12 -17 22 -39 22
-48 0 -13 -30 -128 -56 -217 -5 -16 -20 -18 -125 -18 -65 0 -119 3 -119 8 0 4
11 45 25 91 l24 85 -31 38 c-28 35 -34 39 -72 36 l-41 -3 -34 -127 -34 -128
-119 0 c-79 0 -118 4 -118 11 0 9 136 525 156 592 5 15 20 17 125 17 65 0 119
-3 119 -7z"/>
<path d="M4166 839 c-58 -214 -85 -334 -79 -340 6 -6 66 -8 143 -7 106 2 135
6 141 18 5 8 18 52 30 98 l21 82 55 0 c52 0 54 -1 47 -22 -23 -73 -42 -164
-35 -171 4 -4 70 -6 146 -5 l139 3 37 135 c33 119 35 137 23 155 -28 39 -27
46 13 83 35 33 42 48 63 133 l24 96 -28 36 -28 37 -312 0 -312 0 -88 -331z
m721 275 c16 -25 16 -31 -7 -120 -13 -52 -26 -94 -29 -94 -3 0 -24 -15 -45
-34 l-40 -33 27 -34 26 -35 -32 -119 -32 -120 -122 -3 -122 -3 25 92 c14 53
21 96 16 101 -5 5 -40 8 -78 6 l-69 -3 -17 -55 c-9 -30 -22 -74 -28 -97 l-11
-43 -121 0 c-120 0 -120 0 -114 23 3 12 40 151 82 310 l77 287 299 0 298 0 17
-26z"/>
<path d="M4471 962 c-5 -10 -11 -31 -13 -48 l-3 -29 75 0 75 0 12 38 c7 22 11
43 7 48 -3 5 -36 9 -74 9 -57 0 -71 -3 -79 -18z m129 -16 c0 -27 -16 -36 -66
-36 -30 0 -54 2 -54 4 0 27 16 36 66 36 30 0 54 -2 54 -4z"/>
<path d="M5033 1137 c-48 -36 -41 -18 -128 -341 -31 -115 -54 -218 -51 -230 3
-12 17 -33 31 -49 l26 -27 307 2 307 3 27 100 c15 55 25 106 23 113 -3 9 -52
12 -199 12 -168 0 -195 2 -190 15 5 12 37 15 172 17 l167 3 12 38 c7 21 16 56
19 78 l7 39 -166 0 c-160 0 -165 1 -160 20 5 19 14 20 208 20 l202 0 27 98
c14 54 26 104 26 110 0 9 -81 12 -312 11 l-313 0 -42 -32z m633 -14 c-2 -10
-12 -46 -22 -80 l-17 -63 -198 0 c-219 0 -214 2 -221 -66 l-3 -29 163 -3 c89
-1 162 -5 162 -8 0 -3 -5 -25 -11 -50 l-11 -44 -169 0 -168 0 -10 -37 c-6 -21
-11 -41 -11 -45 0 -5 90 -8 201 -8 156 0 200 -3 196 -12 -3 -7 -13 -46 -23
-85 l-18 -73 -296 0 -296 0 -21 28 -20 27 68 254 c64 238 70 255 101 282 l33
28 298 1 c279 0 298 -1 293 -17z"/>
<path d="M5781 1132 l-43 -38 -79 -294 c-43 -162 -75 -298 -70 -303 4 -4 70
-6 147 -5 l139 3 25 98 25 97 52 0 c29 0 53 -3 53 -7 0 -4 -9 -42 -21 -85 -12
-43 -19 -85 -15 -93 4 -12 29 -15 140 -15 87 0 137 4 142 11 3 6 42 142 85
302 l78 291 -27 38 -27 38 -280 -1 -280 0 -44 -37z m612 -17 c17 -24 16 -30
-58 -304 -41 -154 -75 -283 -75 -286 0 -3 -54 -5 -120 -5 -72 0 -120 4 -120
10 0 5 9 44 21 86 11 41 18 82 15 90 -4 12 -22 14 -78 12 l-72 -3 -26 -97 -25
-98 -121 0 -122 0 34 128 c19 70 53 197 75 282 39 145 44 157 77 183 l35 27
271 0 271 -1 18 -24z"/>
<path d="M5976 972 c-6 -10 -36 -127 -36 -141 0 -7 28 -11 79 -11 l79 0 17 69
c9 39 14 75 10 80 -7 12 -141 15 -149 3z m124 -28 c0 -3 -5 -25 -11 -50 l-11
-44 -55 0 c-44 0 -54 3 -50 14 3 8 9 31 13 50 6 36 6 36 60 36 30 0 54 -3 54
-6z"/>
<path d="M6539 1135 l-45 -34 -78 -291 c-43 -159 -76 -297 -72 -305 4 -12 30
-15 140 -15 86 0 137 4 142 11 3 6 32 107 64 225 31 118 59 217 62 220 3 3 28
4 55 2 l49 -3 -58 -215 c-32 -118 -56 -221 -53 -227 6 -18 268 -18 283 -1 5 7
36 111 67 231 l58 217 54 0 c29 0 53 -1 53 -2 0 -2 -27 -102 -59 -223 -33
-121 -57 -223 -54 -227 6 -11 281 -10 288 1 8 14 155 570 155 588 0 9 -11 31
-26 50 l-25 33 -477 0 -477 -1 -46 -34z m1009 -20 l20 -25 -34 -128 c-19 -70
-53 -198 -76 -284 l-41 -158 -122 0 -122 0 59 218 c32 119 56 223 53 230 -3 8
-28 12 -75 12 -58 0 -72 -3 -77 -17 -4 -10 -33 -112 -64 -228 l-56 -210 -122
-3 c-66 -1 -121 -1 -121 0 0 2 27 102 59 223 33 121 57 223 54 227 -8 13 -140
9 -150 -4 -5 -7 -36 -111 -68 -230 l-58 -218 -119 0 c-65 0 -118 3 -118 8 0 4
32 129 71 277 69 261 73 271 108 302 l36 33 472 0 472 0 19 -25z"/>
<path d="M298 1123 c17 -21 59 -66 94 -101 l64 -62 334 2 335 3 22 80 c12 44
22 88 22 98 1 16 -27 17 -450 17 l-451 0 30 -37z"/>
<path d="M1257 1153 c-3 -5 -35 -120 -72 -258 -36 -137 -75 -281 -85 -318
l-19 -68 136 3 136 3 24 90 c13 50 28 107 34 128 l10 37 64 0 c45 0 65 -4 65
-12 0 -7 -14 -62 -30 -123 -16 -60 -30 -113 -30 -117 0 -5 60 -8 133 -8 l132
0 84 313 c46 171 86 318 89 325 3 9 -27 12 -132 12 l-135 0 -11 -42 c-6 -24
-15 -56 -20 -73 -5 -16 -16 -56 -25 -87 l-16 -58 -64 0 c-36 0 -65 3 -65 8 0
4 14 57 30 117 16 61 30 116 30 123 0 9 -33 12 -129 12 -72 0 -132 -3 -134 -7z"/>
<path d="M2050 1139 c-14 -12 -33 -27 -43 -34 -12 -8 -39 -92 -87 -271 l-69
-259 22 -32 22 -33 275 0 275 0 42 38 c41 37 41 37 107 284 36 136 66 251 66
257 0 5 -12 23 -26 40 l-26 31 -266 0 c-256 -1 -268 -2 -292 -21z m285 -266
c-13 -49 -29 -107 -35 -130 l-11 -43 -64 0 c-42 0 -65 4 -65 11 0 6 14 65 32
130 l31 119 68 0 68 0 -24 -87z"/>
<path d="M2800 1139 c-14 -12 -33 -27 -42 -33 -11 -8 -39 -97 -83 -260 -37
-137 -69 -254 -71 -261 -3 -7 7 -26 21 -44 l27 -31 304 0 c167 0 304 2 304 4
0 3 11 45 24 95 l25 91 -200 0 c-211 0 -206 -1 -193 48 6 22 9 22 175 22 l168
0 16 52 c24 83 35 78 -151 78 -147 0 -165 2 -160 16 3 9 6 22 6 30 0 12 35 14
205 14 l204 0 11 43 c6 23 18 64 26 91 8 27 14 53 14 58 0 4 -136 8 -302 8
-292 -1 -304 -1 -328 -21z"/>
<path d="M421 853 c-7 -27 -14 -56 -17 -65 -5 -17 9 -18 195 -18 118 0 201 -4
201 -9 0 -5 -4 -21 -10 -35 l-10 -26 -199 0 c-181 0 -200 -2 -205 -17 -8 -29
-46 -167 -46 -170 0 -2 136 -3 303 -3 l303 0 42 31 c29 21 45 42 51 67 6 20
23 87 40 149 28 106 28 112 12 127 -15 14 -60 16 -333 16 l-316 0 -11 -47z"/>
</g>
</svg>
